<?xml version="1.0" encoding="UTF-8" standalone="no"?>
<!DOCTYPE svg PUBLIC "-//W3C//DTD SVG 1.1//EN" "http://www.w3.org/Graphics/SVG/1.1/DTD/svg11.dtd">
<svg xmlns="http://www.w3.org/2000/svg" xmlns:xlink="http://www.w3.org/1999/xlink" version="1.1" width="960pt" height="540pt" viewBox="0 0 960 540">
<g enable-background="new">
<path transform="matrix(1,0,0,-1,0,540)" d="M 285.983 135.5588 L 338.8894 135.5588 C 339.7464 135.5588 340.582 135.4451 341.3801 135.228 L 343.0931 134.5098 L 342.0462 132.6991 C 332.5803 116.3277 320.464 95.37222 304.955 68.54915 C 300.3514 60.59875 292.0645 55.70608 282.857 55.70608 L 265.094 55.70608 L 263.0219 55.70608 L 261.0446 59.11104 C 258.2913 63.85245 255.0876 69.36946 251.3596 75.78938 C 249.6457 78.6356 249.6457 82.27859 251.3596 85.12474 L 277.87 130.7773 C 279.4698 133.7373 282.6691 135.5588 285.983 135.5588 Z M 140.7541 351.7056 L 282.857 351.7056 C 292.0645 351.7056 300.3514 346.8131 304.955 338.8627 L 375.8531 216.243 C 380.4569 208.5984 380.4569 198.8133 375.8531 191.1687 L 349.5282 145.6391 L 347.3095 141.8021 L 347.3876 141.7694 C 348.9827 140.8384 350.3361 139.49 351.3029 137.8206 L 381.0774 86.32482 C 383.0109 83.11434 383.0109 79.00497 381.0774 75.79442 L 351.3029 24.29883 C 349.3694 20.95993 345.8892 18.90521 342.0224 18.90521 L 282.3443 18.90521 C 278.6063 18.90521 274.9974 20.95993 273.1928 24.29883 L 257.1533 51.91986 L 255.3414 55.04025 L 256.7671 55.04025 L 263.5057 55.04025 L 266.4331 49.99907 L 277.6171 30.73938 C 279.2169 27.77946 282.4164 25.95781 285.7302 25.95781 L 338.6366 25.95781 C 342.0646 25.95781 345.1498 27.77946 346.8638 30.73938 L 373.2599 76.39182 C 374.9739 79.23812 374.9739 82.88119 373.2599 85.72741 L 346.8638 131.3799 C 346.0068 132.8599 344.807 134.0554 343.393 134.8806 L 342.9913 135.0489 L 345.1444 138.7725 L 346.7455 141.5419 L 345.0848 142.2383 C 344.1845 142.4832 343.242 142.6115 342.2753 142.6115 L 282.5972 142.6115 C 278.8593 142.6115 275.2502 140.5569 273.4457 137.218 L 243.5423 85.7223 C 241.6087 82.51182 241.6087 78.40245 243.5423 75.1919 C 247.2801 68.75505 250.5508 63.12261 253.4127 58.19434 L 254.8576 55.70608 L 248.1639 55.70608 C 227.3481 55.70608 194.0427 55.70608 140.7541 55.70608 C 131.8535 55.70608 123.2598 60.59875 118.9628 68.54915 L 47.75811 191.1687 C 43.15425 198.8133 43.15425 208.5984 47.75811 216.243 L 118.9628 338.8627 C 123.2598 346.8131 131.8535 351.7056 140.7541 351.7056 Z M 388.5352 473.5803 L 500.6947 473.5803 C 506.3694 473.5803 513.7132 469.5063 516.7174 464.4137 L 572.7971 365.6184 C 575.4675 360.1863 575.4675 352.0383 572.7971 346.6061 L 516.7174 247.8109 C 513.7132 242.7182 506.3694 238.6443 500.6947 238.6443 L 388.5352 238.6443 C 382.5268 238.6443 375.1831 242.7182 372.5126 247.8109 L 316.4328 346.6061 C 313.4285 352.0383 313.4285 360.1863 316.4328 365.6184 L 372.5126 464.4137 C 375.1831 469.5063 382.5268 473.5803 388.5352 473.5803 Z M 228.057 505.705 L 294.7953 505.705 C 298.172 505.705 302.5419 503.2808 304.3294 500.2505 L 337.6986 441.4642 C 339.2876 438.2319 339.2876 433.3835 337.6986 430.1513 L 304.3294 371.365 C 302.5419 368.3347 298.172 365.9106 294.7953 365.9106 L 228.057 365.9106 C 224.4817 365.9106 220.112 368.3347 218.5229 371.365 L 185.1537 430.1513 C 183.3661 433.3835 183.3661 438.2319 185.1537 441.4642 L 218.5229 500.2505 C 220.112 503.2808 224.4817 505.705 228.057 505.705 Z " fill="#7f7f7f" fill-opacity=".149" fill-rule="evenodd"/>
<path transform="matrix(1,0,0,-1,0,540)" d="M 283.1442 465.9684 C 288.5501 465.9696 292.9334 461.5883 292.9346 456.1824 C 292.9352 453.7386 292.0215 451.383 290.3734 449.5787 L 253.8364 413.0784 C 249.8477 409.4288 243.6558 409.7037 240.0062 413.6924 C 236.5876 417.4287 236.5831 423.1556 239.9959 426.8972 L 276.5329 463.3974 C 278.3365 465.0528 280.6961 465.9704 283.1442 465.9684 M 283.1442 467.4684 C 280.3088 467.4715 277.5768 466.4044 275.4942 464.4804 L 238.9121 427.9344 C 234.6956 423.3418 235.0005 416.2005 239.5931 411.9839 C 243.9155 408.0154 250.5576 408.0201 254.8744 411.9946 L 291.4572 448.5406 C 295.6764 453.1304 295.376 460.2714 290.7863 464.4906 C 288.7024 466.4063 285.9748 467.4691 283.1442 467.4684 Z " fill="black" fill-rule="evenodd"/>
<path transform="matrix(1,0,0,-1,0,540)" d="M 265.1845 447.3152 C 264.5633 447.3154 264.0595 446.8117 264.0593 446.1904 C 264.0592 445.5691 264.5627 445.0654 265.1842 445.0652 C 265.8054 445.065 266.3092 445.5687 266.3093 446.19 C 266.3094 446.4882 266.1911 446.7743 265.9803 446.9852 C 265.7693 447.1964 265.4831 447.3151 265.1845 447.3152 Z " fill="black" fill-rule="evenodd"/>
<path transform="matrix(1,0,0,-1,0,540)" d="M 267.8366 444.6632 C 267.2154 444.6633 266.7116 444.1597 266.7114 443.5383 C 266.7113 442.9171 267.2148 442.4133 267.8362 442.4132 C 268.4575 442.413 268.9613 442.9166 268.9614 443.538 C 268.9615 443.8365 268.8428 444.1228 268.6317 444.3339 C 268.4207 444.5446 268.1348 444.6631 267.8366 444.6632 Z " fill="black" fill-rule="evenodd"/>
<path transform="matrix(1,0,0,-1,0,540)" d="M 270.4878 442.0119 C 269.8665 442.0121 269.3627 441.5084 269.3626 440.8871 C 269.3624 440.2658 269.866 439.7621 270.4874 439.7619 C 271.1086 439.7617 271.6124 440.2654 271.6126 440.8867 C 271.6127 441.1849 271.4943 441.4709 271.2835 441.6819 C 271.0726 441.8931 270.7863 442.0118 270.4878 442.0119 Z " fill="black" fill-rule="evenodd"/>
<path transform="matrix(1,0,0,-1,0,540)" d="M 273.1398 439.3599 C 272.5186 439.3601 272.0148 438.8565 272.0147 438.2351 C 272.0145 437.6139 272.518 437.1101 273.1395 437.1099 C 273.7607 437.1098 274.2645 437.6134 274.2647 438.2347 C 274.2647 438.5333 274.1461 438.8196 273.9349 439.0307 C 273.7239 439.2414 273.438 439.3598 273.1398 439.3599 Z " fill="black" fill-rule="evenodd"/>
<path transform="matrix(1,0,0,-1,0,540)" d="M 257.2294 439.3599 C 256.608 439.3596 256.1046 438.8557 256.1049 438.2344 C 256.1052 437.6131 256.609 437.1096 257.2304 437.1099 C 257.8517 437.1102 258.3552 437.6142 258.3549 438.2354 C 258.3547 438.5337 258.236 438.8198 258.0251 439.0307 C 257.8142 439.242 257.5279 439.3605 257.2294 439.3599 Z " fill="black" fill-rule="evenodd"/>
<path transform="matrix(1,0,0,-1,0,540)" d="M 259.8813 436.708 C 259.26 436.7076 258.7565 436.2037 258.7568 435.5824 C 258.7572 434.9611 259.261 434.4576 259.8824 434.458 C 260.5037 434.4583 261.0072 434.9622 261.0068 435.5835 C 261.0067 435.8817 260.888 436.1678 260.6771 436.3787 C 260.4661 436.5897 260.1798 436.7081 259.8813 436.708 Z " fill="black" fill-rule="evenodd"/>
<path transform="matrix(1,0,0,-1,0,540)" d="M 262.5326 434.0567 C 261.9112 434.0564 261.4078 433.5524 261.4081 432.9312 C 261.4084 432.3098 261.9123 431.8064 262.5336 431.8067 C 263.1549 431.807 263.6584 432.3109 263.6581 432.9322 C 263.6579 433.2305 263.5393 433.5165 263.3283 433.7275 C 263.1173 433.9384 262.831 434.0569 262.5326 434.0567 Z " fill="black" fill-rule="evenodd"/>
<path transform="matrix(1,0,0,-1,0,540)" d="M 265.1846 431.4046 C 264.5633 431.4043 264.0598 430.9004 264.0601 430.2791 C 264.0605 429.6578 264.5643 429.1543 265.1857 429.1546 C 265.807 429.155 266.3105 429.6589 266.3101 430.2802 C 266.31 430.5784 266.1913 430.8645 265.9804 431.0754 C 265.7693 431.2864 265.4831 431.4048 265.1846 431.4046 Z " fill="black" fill-rule="evenodd"/>
<path transform="matrix(1,0,0,-1,0,540)" d="M 262.5326 444.6632 C 261.9112 444.6628 261.4078 444.1589 261.4081 443.5376 C 261.4084 442.9163 261.9123 442.4128 262.5336 442.4132 C 263.1549 442.4135 263.6584 442.9174 263.6581 443.5387 C 263.6579 443.8369 263.5393 444.123 263.3283 444.3339 C 263.1175 444.5452 262.8311 444.6637 262.5326 444.6632 Z " fill="black" fill-rule="evenodd"/>
<path transform="matrix(1,0,0,-1,0,540)" d="M 265.1845 442.0119 C 264.5633 442.0121 264.0595 441.5084 264.0593 440.8871 C 264.0592 440.2658 264.5627 439.7621 265.1842 439.7619 C 265.8054 439.7617 266.3092 440.2654 266.3093 440.8867 C 266.3094 441.1849 266.1911 441.4709 265.9803 441.6819 C 265.7693 441.8931 265.4831 442.0118 265.1845 442.0119 Z " fill="black" fill-rule="evenodd"/>
<path transform="matrix(1,0,0,-1,0,540)" d="M 267.8366 439.3599 C 267.2154 439.3601 266.7116 438.8565 266.7114 438.2351 C 266.7113 437.6139 267.2148 437.1101 267.8362 437.1099 C 268.4575 437.1098 268.9613 437.6134 268.9614 438.2347 C 268.9615 438.5333 268.8428 438.8196 268.6317 439.0307 C 268.4207 439.2414 268.1348 439.3598 267.8366 439.3599 Z " fill="black" fill-rule="evenodd"/>
<path transform="matrix(1,0,0,-1,0,540)" d="M 270.4879 436.708 C 269.8665 436.7076 269.3631 436.2037 269.3634 435.5824 C 269.3637 434.9611 269.8675 434.4576 270.4889 434.458 C 271.1102 434.4583 271.6137 434.9622 271.6134 435.5835 C 271.6132 435.8817 271.4946 436.1678 271.2836 436.3787 C 271.0726 436.5897 270.7863 436.7081 270.4879 436.708 Z " fill="black" fill-rule="evenodd"/>
<path transform="matrix(1,0,0,-1,0,540)" d="M 259.8813 442.0119 C 259.2601 442.0121 258.7563 441.5084 258.7561 440.8871 C 258.756 440.2658 259.2595 439.7621 259.8809 439.7619 C 260.5022 439.7617 261.006 440.2654 261.0061 440.8867 C 261.0062 441.1849 260.8879 441.4709 260.6771 441.6819 C 260.4661 441.8931 260.1798 442.0118 259.8813 442.0119 Z " fill="black" fill-rule="evenodd"/>
<path transform="matrix(1,0,0,-1,0,540)" d="M 262.5326 439.3599 C 261.9112 439.3596 261.4078 438.8557 261.4081 438.2344 C 261.4084 437.6131 261.9123 437.1096 262.5336 437.1099 C 263.1549 437.1102 263.6584 437.6142 263.6581 438.2354 C 263.6579 438.5337 263.5393 438.8198 263.3283 439.0307 C 263.1175 439.242 262.8311 439.3605 262.5326 439.3599 Z " fill="black" fill-rule="evenodd"/>
<path transform="matrix(1,0,0,-1,0,540)" d="M 265.1846 436.708 C 264.5633 436.7076 264.0598 436.2037 264.0601 435.5824 C 264.0605 434.9611 264.5643 434.4576 265.1857 434.458 C 265.807 434.4583 266.3105 434.9622 266.3101 435.5835 C 266.31 435.8817 266.1913 436.1678 265.9804 436.3787 C 265.7693 436.5897 265.4831 436.7081 265.1846 436.708 Z " fill="black" fill-rule="evenodd"/>
<path transform="matrix(1,0,0,-1,0,540)" d="M 267.8366 434.0567 C 267.2154 434.0569 266.7116 433.5532 266.7114 432.9319 C 266.7113 432.3106 267.2148 431.8069 267.8362 431.8067 C 268.4575 431.8065 268.9613 432.3102 268.9614 432.9315 C 268.9615 433.2301 268.8428 433.5164 268.6317 433.7275 C 268.4207 433.9382 268.1348 434.0566 267.8366 434.0567 Z " fill="black" fill-rule="evenodd"/>
<path transform="matrix(1,0,0,-1,0,540)" d="M 502.63 325.7848 L 471.7823 344.7435 L 453.0706 421.6079 C 452.5452 424.2346 448.8676 426.161 444.4896 426.161 C 440.1116 426.161 436.434 424.2346 435.9086 421.6079 L 417.2074 344.754 L 386.3492 325.7848 C 384.705 324.822 384.1527 322.7086 385.1153 321.0646 C 385.414 320.5543 385.8391 320.1295 386.3492 319.8306 L 440.8121 286.5453 C 443.0635 285.1443 445.9156 285.1443 448.1672 286.5453 L 502.63 319.8289 C 504.2747 320.7909 504.8281 322.9039 503.8661 324.5486 C 503.567 325.06 503.1413 325.4857 502.63 325.7848 Z M 416.4702 326.8688 C 416.4866 326.9914 416.5101 327.1131 416.5402 327.2331 L 422.4313 351.4402 C 436.6289 345.9939 452.3398 345.9939 466.5374 351.4402 L 472.3514 327.5553 C 472.4268 327.2418 472.4513 327.0194 472.4863 326.7953 C 472.5068 326.6338 472.5132 326.4709 472.5055 326.3084 C 472.5055 320.5084 460.9983 314.0499 444.4861 314.0499 C 427.9739 314.0499 416.4666 320.5136 416.4666 326.3084 C 416.4702 326.508 416.4702 326.7199 416.4789 326.8671 Z M 444.4896 373.6246 C 449.9402 373.6133 455.3681 374.3269 460.6306 375.747 L 465.7091 354.883 C 452.0738 349.5185 436.9124 349.5185 423.2771 354.883 L 428.3556 375.7417 C 433.6161 374.3248 439.0416 373.6128 444.4896 373.6246 Z M 429.1822 379.1426 L 434.4358 400.7001 C 437.7602 400.1639 441.1222 399.8939 444.4896 399.8928 C 447.8621 399.8933 451.2291 400.1621 454.5591 400.6966 L 459.8022 379.1566 C 449.7704 376.4902 439.2165 376.4853 429.1822 379.1426 Z M 439.3445 420.9074 C 439.5091 421.389 441.3444 422.6586 444.4931 422.6586 C 447.6417 422.6586 449.4788 421.389 449.6399 420.9196 L 453.729 404.108 C 447.608 403.171 441.3799 403.171 435.2589 404.108 Z M 446.3354 289.5328 C 445.2076 288.8198 443.7698 288.8198 442.6421 289.5328 L 388.2265 322.7954 C 388.2183 322.8006 388.2158 322.8114 388.2209 322.8196 C 388.2223 322.8219 388.2243 322.8239 388.2265 322.8253 L 416.0323 339.9189 L 413.1428 328.0614 C 412.9972 327.4896 412.9383 326.8995 412.9677 326.3102 C 412.9677 317.5541 427.1525 310.5492 444.4896 310.5492 C 461.8266 310.5492 476.0115 317.5541 476.0115 326.3102 C 476.0115 327.0106 475.8364 327.536 475.8364 328.0614 L 472.9539 339.9049 L 500.7561 322.8165 C 500.7644 322.8114 500.7669 322.8006 500.7618 322.7923 C 500.7604 322.7901 500.7584 322.7881 500.7561 322.7867 Z " fill="black" fill-rule="evenodd"/>
<path transform="matrix(1,0,0,-1,0,540)" d="M 291.9858 226.9213 C 295.2924 226.9213 297.9728 229.6017 297.9728 232.9083 L 297.9728 252.8649 C 297.9728 256.1714 295.2924 258.8518 291.9858 258.8518 L 278.0163 258.8518 L 278.0163 268.8301 C 278.0163 273.2387 274.4423 276.8127 270.0337 276.8127 C 265.625 276.8127 262.0511 273.2387 262.0511 268.8301 L 262.0511 258.8518 L 174.2424 258.8518 L 174.2424 268.8301 C 174.2424 273.2387 170.6683 276.8127 166.2598 276.8127 C 161.8512 276.8127 158.2772 273.2387 158.2772 268.8301 L 158.2772 258.8518 L 144.3076 258.8518 C 141.0011 258.8518 138.3206 256.1714 138.3206 252.8649 L 138.3206 232.9083 C 138.3206 229.6017 141.0011 226.9213 144.3076 226.9213 L 158.2772 226.9213 L 158.2772 206.9649 L 144.3076 206.9649 C 141.0011 206.9649 138.3206 204.2845 138.3206 200.9779 L 138.3206 181.0213 C 138.3206 177.7148 141.0011 175.0344 144.3076 175.0344 L 158.2772 175.0344 L 158.2772 140.8269 C 154.759 139.9251 152.2966 136.7576 152.2901 133.1257 L 152.2901 129.1344 L 180.2293 129.1344 L 180.2293 133.1257 C 180.2229 136.7576 177.7605 139.9251 174.2424 140.8269 L 174.2424 175.0344 L 262.0511 175.0344 L 262.0511 140.8269 C 258.5329 139.9251 256.0705 136.7576 256.0641 133.1257 L 256.0641 129.1344 L 284.0032 129.1344 L 284.0032 133.1257 C 283.9968 136.7576 281.5344 139.9251 278.0163 140.8269 L 278.0163 175.0344 L 291.9858 175.0344 C 295.2924 175.0344 297.9728 177.7148 297.9728 181.0213 L 297.9728 200.9779 C 297.9728 204.2845 295.2924 206.9649 291.9858 206.9649 L 278.0163 206.9649 L 278.0163 226.9213 Z M 277.7449 234.904 L 261.7797 250.8692 L 278.7108 250.8692 L 289.9901 239.5917 L 289.9901 234.904 Z M 238.0314 234.904 L 222.0661 250.8692 L 238.9973 250.8692 L 254.9625 234.904 Z M 197.4079 234.904 L 181.4427 250.8692 L 198.3757 250.8692 L 214.341 234.904 Z M 158.7601 250.8692 L 174.7253 234.904 L 157.7942 234.904 L 146.3032 246.395 L 146.3032 250.8692 Z M 238.9853 198.9822 L 254.9505 183.017 L 238.0234 183.017 L 222.0582 198.9822 Z M 198.3757 198.9822 L 214.341 183.017 L 197.4079 183.017 L 181.4427 198.9822 Z M 158.7601 198.9822 L 174.7253 183.017 L 157.7942 183.017 L 146.3032 194.5079 L 146.3032 198.9822 Z M 277.7449 183.017 L 261.7797 198.9822 L 278.7108 198.9822 L 289.9901 187.7048 L 289.9901 183.017 Z M 262.0511 206.9649 L 174.2424 206.9649 L 174.2424 226.9213 L 262.0511 226.9213 Z " fill="black" fill-rule="evenodd"/>
</g>
</svg>
